[center]
[URL=http://img7.imageshack.us/i/planetdinosaur.jpg/][IMG]http://img7.imageshack.us/img7/7870/planetdinosaur.jpg[/IMG][/URL]
-=-=-=-=-=-=-=-=-=-=-=-

[b]Planet Dinosaur Files[/b]

Jem Stansfield goes massive, finding out which was the biggest dinosaur of all in the prehistoric world. 
Jem builds his very own set of huge dinosaur feet and, with the help of a 45-tonne hydraulic excavator, 
unleashes the enormous force of these incredible creatures.

Category General Children's/Youth

Cast
Presenter Jem Stansfield 
 
-=-=-=-=-=-=-=-=-=-

[b]File info[/b]

Format                           : AVI
Format/Info                      : Audio Video Interleave
File size                        : 351 MiB
Duration                         : 28mn 14s
Overall bit rate                 : 1 737 Kbps
Writing library                  : VirtualDub build 32842/release

Video
ID                               : 0
Format                           : MPEG-4 Visual
Format profile                   : Simple@L1
Format settings, BVOP            : No
Format settings, QPel            : No
Format settings, GMC             : No warppoints
Format settings, Matrix          : Default (H.263)
Codec ID                         : XVID
Codec ID/Hint                    : XviD
Duration                         : 28mn 14s
Bit rate                         : 1 600 Kbps
Width                            : 720 pixels
Height                           : 420 pixels
Display aspect ratio             : 16:9
Frame rate                       : 25.000 fps
Color space                      : YUV
Chroma subsampling               : 4:2:0
Bit depth                        : 8 bits
Scan type                        : Progressive
Compression mode                 : Lossy
Bits/(Pixel*Frame)               : 0.212
Stream size                      : 323 MiB (92%)
Writing library                  : Lavc52.41.0

Audio
ID                               : 1
Format                           : MPEG Audio
Format version                   : Version 1
Format profile                   : Layer 3
Mode                             : Joint stereo
Mode extension                   : MS Stereo
Codec ID                         : 55
Codec ID/Hint                    : MP3
Duration                         : 28mn 14s
Bit rate mode                    : Constant
Bit rate                         : 128 Kbps
Channel(s)                       : 2 channels
Sampling rate                    : 48.0 KHz
Compression mode                 : Lossy
Stream size                      : 25.8 MiB (7%)
Alignment                        : Split accross interleaves
Interleave, duration             : 40 ms (1.00 video frame)
Interleave, preload duration     : 500 ms


spoken language: Engish

--------------------------------

[b]Screenshots[/b]

[URL=http://img850.imageshack.us/i/planetdinosaurfiless01e.jpg/][IMG]http://img850.imageshack.us/img850/6783/planetdinosaurfiless01e.jpg[/IMG][/URL]

[b]Hash:[/b]
2534B0BC1FD8CD08B89AFD41B9F6B132B6CEF9BE

[/center]

